<svg width="15" height="16" viewBox="0 0 15 16" fill="none" xmlns="http://www.w3.org/2000/svg">
<path  d="M13.3352 1.24738H11.5875V2.01635C11.5875 2.36084 11.2154 2.64003 10.7562 2.64003H4.24592C3.78667 2.64003 3.4146 2.36084 3.4146 2.01635V1.24738H1.6669C0.746279 1.24738 0 2.09962 0 3.15105V14.0963C0 15.1478 0.746279 16 1.6669 16H13.3331C14.2537 16 15 15.1478 15 14.0963V3.15105C15.0021 2.09962 14.2558 1.24738 13.3352 1.24738ZM12.8249 12.529C12.8249 12.7625 12.5783 12.9518 12.2743 12.9518H2.72998C2.42594 12.9518 2.1793 12.7625 2.1793 12.529V12.4359C2.1793 12.2025 2.42594 12.0131 2.72998 12.0131H12.2743C12.5783 12.0131 12.8249 12.2025 12.8249 12.4359V12.529ZM12.8249 9.13308C12.8249 9.36655 12.5783 9.55594 12.2743 9.55594H2.72998C2.42594 9.55594 2.1793 9.36655 2.1793 9.13308V9.04002C2.1793 8.80655 2.42594 8.61716 2.72998 8.61716H12.2743C12.5783 8.61716 12.8249 8.80655 12.8249 9.04002V9.13308ZM12.8249 5.7388C12.8249 5.97227 12.5783 6.16165 12.2743 6.16165H2.72998C2.42594 6.16165 2.1793 5.97227 2.1793 5.7388V5.64574C2.1793 5.41227 2.42594 5.22288 2.72998 5.22288H12.2743C12.5783 5.22288 12.8249 5.41227 12.8249 5.64574V5.7388Z" fill="#C4C6D7"/>
<path d="M10.4223 0.81306V1.74694H4.57959V0.81306H6.96938V0.390204C6.96938 0.174694 7.24366 0 7.57959 0C7.91552 0 8.18979 0.174694 8.18979 0.390204V0.81306H10.4223Z" fill="#C4C6D7"/>
<path d="M7.64354 1.28494H7.52235C7.21831 1.28494 6.97168 1.09556 6.97168 0.862086V0.466985C6.97168 0.233516 7.21831 0.0441284 7.52235 0.0441284H7.64354C7.94758 0.0441284 8.19422 0.233516 8.19422 0.466985V0.860454C8.19422 1.09556 7.94758 1.28494 7.64354 1.28494Z" fill="#C4C6D7"/>
<path d="M4.64551 0.754395H10.3245V1.6948H4.64551V0.754395Z" fill="#C4C6D7"/>
</svg>
