<svg width="41" height="40" viewBox="0 0 41 40" fill="none" xmlns="http://www.w3.org/2000/svg">
<circle cx="20.5" cy="20" r="20" fill="#5E7DD7"/>
<path d="M25.0539 11.9476C25.0539 14.6801 19.6424 19.369 19.6424 19.369C19.6424 19.369 14.231 14.6801 14.231 11.9476C14.231 9.21512 16.6537 7 19.6424 7C22.6311 7 25.0539 9.21512 25.0539 11.9476Z" fill="white"/>
<path d="M15.0397 28.2022C14.9935 25.4143 19.962 20.5466 19.962 20.5466C19.962 20.5466 25.0892 25.2468 25.1355 28.0347C25.1817 30.8225 22.9592 33.12 20.1714 33.1663C17.3835 33.2125 15.086 30.99 15.0397 28.2022Z" fill="white"/>
<path d="M29.2181 25.5588C26.4299 25.5413 21.6772 20.4627 21.6772 20.4627C21.6772 20.4627 26.4934 15.4444 29.2816 15.4619C32.0698 15.4794 34.3159 17.7539 34.2983 20.5421C34.2808 23.3303 32.0063 25.5763 29.2181 25.5588Z" fill="white"/>
<path d="M11.5483 15.4647C14.3365 15.4462 19.1545 20.4628 19.1545 20.4628C19.1545 20.4628 14.4035 25.543 11.6153 25.5616C8.82716 25.5801 6.55188 23.3348 6.53336 20.5466C6.51485 17.7585 8.7601 15.4832 11.5483 15.4647Z" fill="white"/>
</svg>
