<svg width="16" height="20" viewBox="0 0 16 20" fill="none" xmlns="http://www.w3.org/2000/svg">
<path d="M15.0176 12.1266H14.8466C14.1912 12.1266 13.6783 11.5357 13.6783 10.7806V6.44734C13.6783 2.63931 10.7147 -0.413687 7.32359 0.0459035C4.41695 0.40701 2.27972 3.32869 2.27972 6.70997V10.6165C2.27972 11.4372 1.68129 12.1266 0.968879 12.1266H0.940383C0.427447 12.1266 0 12.619 0 13.2099V13.9978C0 14.5887 0.427447 15.0811 0.940383 15.0811H15.0176C15.5306 15.0811 15.958 14.5887 15.958 13.9978V13.2099C15.958 12.619 15.5306 12.1266 15.0176 12.1266Z" fill="#C5C5C5"/>
<path d="M9.86008 17.0508H6.09855C5.87058 17.0508 5.67111 17.2477 5.7281 17.5104C5.92757 18.7578 6.86796 19.677 8.00781 19.677C9.14767 19.677 10.0596 18.7907 10.2875 17.5104C10.2875 17.2477 10.1166 17.0508 9.86008 17.0508Z" fill="#C5C5C5"/>
</svg>
