<svg width="37" height="37" viewBox="0 0 37 37" fill="none" xmlns="http://www.w3.org/2000/svg">
<circle cx="18.5" cy="18.5" r="18.5" fill="#FFF4F6"/>
<circle cx="19" cy="19" r="10" fill="#FFA452"/>
<path d="M18.4844 22.3636V21.9034C18.4844 21.554 18.5582 21.233 18.706 20.9403C18.8565 20.6449 19.0739 20.4091 19.358 20.233C19.6449 20.054 19.9943 19.9645 20.4062 19.9645C20.8239 19.9645 21.1747 20.0526 21.4588 20.2287C21.7457 20.4048 21.9616 20.6406 22.1065 20.9361C22.2543 21.2287 22.3281 21.5511 22.3281 21.9034V22.3636C22.3281 22.7131 22.2543 23.0355 22.1065 23.331C21.9588 23.6236 21.7415 23.858 21.4545 24.0341C21.1676 24.2131 20.8182 24.3026 20.4062 24.3026C19.9886 24.3026 19.6378 24.2131 19.3537 24.0341C19.0696 23.858 18.8537 23.6236 18.706 23.331C18.5582 23.0355 18.4844 22.7131 18.4844 22.3636ZM19.7244 21.9034V22.3636C19.7244 22.5653 19.7727 22.7557 19.8693 22.9347C19.9688 23.1136 20.1477 23.2031 20.4062 23.2031C20.6648 23.2031 20.8409 23.1151 20.9347 22.9389C21.0313 22.7628 21.0795 22.571 21.0795 22.3636V21.9034C21.0795 21.696 21.0341 21.5028 20.9432 21.3239C20.8523 21.1449 20.6733 21.0554 20.4062 21.0554C20.1506 21.0554 19.973 21.1449 19.8736 21.3239C19.7741 21.5028 19.7244 21.696 19.7244 21.9034ZM14.0057 17.3693V16.9091C14.0057 16.5568 14.081 16.2344 14.2315 15.9418C14.3821 15.6463 14.5994 15.4105 14.8835 15.2344C15.1705 15.0582 15.517 14.9702 15.9233 14.9702C16.3438 14.9702 16.696 15.0582 16.9801 15.2344C17.2642 15.4105 17.4801 15.6463 17.6278 15.9418C17.7756 16.2344 17.8494 16.5568 17.8494 16.9091V17.3693C17.8494 17.7216 17.7741 18.044 17.6236 18.3366C17.4759 18.6293 17.2585 18.8636 16.9716 19.0398C16.6875 19.2131 16.3381 19.2997 15.9233 19.2997C15.5085 19.2997 15.1577 19.2116 14.8707 19.0355C14.5866 18.8565 14.3707 18.6222 14.223 18.3324C14.0781 18.0398 14.0057 17.7187 14.0057 17.3693ZM15.2543 16.9091V17.3693C15.2543 17.5767 15.3026 17.7685 15.3991 17.9446C15.4986 18.1207 15.6733 18.2088 15.9233 18.2088C16.1847 18.2088 16.3622 18.1207 16.456 17.9446C16.5526 17.7685 16.6009 17.5767 16.6009 17.3693V16.9091C16.6009 16.7017 16.5554 16.5085 16.4645 16.3295C16.3736 16.1506 16.1932 16.0611 15.9233 16.0611C15.6705 16.0611 15.4957 16.152 15.3991 16.3338C15.3026 16.5156 15.2543 16.7074 15.2543 16.9091ZM14.5682 24L20.5682 15.2727H21.6847L15.6847 24H14.5682Z" fill="white"/>
</svg>
