<svg width="15" height="16" viewBox="0 0 15 16" fill="none" xmlns="http://www.w3.org/2000/svg">
<path d="M6.0625 14.6666L5.75 12.5666C5.55208 12.4889 5.34375 12.3833 5.125 12.25C4.90625 12.1166 4.71354 11.9778 4.54687 11.8333L2.70312 12.7333L1.25 9.99998L2.9375 8.68331C2.91667 8.58331 2.90365 8.46942 2.89844 8.34165C2.89323 8.21387 2.89063 8.09998 2.89063 7.99998C2.89063 7.89998 2.89323 7.78609 2.89844 7.65831C2.90365 7.53054 2.91667 7.41665 2.9375 7.31665L1.25 5.99998L2.70312 3.26665L4.54687 4.16665C4.71354 4.0222 4.90625 3.88331 5.125 3.74998C5.34375 3.61665 5.55208 3.51665 5.75 3.44998L6.0625 1.33331H8.9375L9.25 3.43331C9.44792 3.51109 9.65885 3.61387 9.88281 3.74165C10.1068 3.86942 10.2969 4.01109 10.4531 4.16665L12.2969 3.26665L13.75 5.99998L12.0625 7.28331C12.0833 7.39442 12.0964 7.51387 12.1016 7.64165C12.1068 7.76942 12.1094 7.88887 12.1094 7.99998C12.1094 8.11109 12.1068 8.22776 12.1016 8.34998C12.0964 8.4722 12.0833 8.58887 12.0625 8.69998L13.75 9.99998L12.2969 12.7333L10.4531 11.8333C10.2865 11.9778 10.0964 12.1194 9.88281 12.2583C9.66927 12.3972 9.45833 12.5 9.25 12.5666L8.9375 14.6666H6.0625ZM7.5 10.1666C8.0625 10.1666 8.54167 9.95554 8.9375 9.53331C9.33333 9.11109 9.53125 8.59998 9.53125 7.99998C9.53125 7.39998 9.33333 6.88887 8.9375 6.46665C8.54167 6.04442 8.0625 5.83331 7.5 5.83331C6.9375 5.83331 6.45833 6.04442 6.0625 6.46665C5.66667 6.88887 5.46875 7.39998 5.46875 7.99998C5.46875 8.59998 5.66667 9.11109 6.0625 9.53331C6.45833 9.95554 6.9375 10.1666 7.5 10.1666ZM7.5 9.16665C7.19792 9.16665 6.9401 9.05276 6.72656 8.82498C6.51302 8.5972 6.40625 8.3222 6.40625 7.99998C6.40625 7.67776 6.51302 7.40276 6.72656 7.17498C6.9401 6.9472 7.19792 6.83331 7.5 6.83331C7.80208 6.83331 8.0599 6.9472 8.27344 7.17498C8.48698 7.40276 8.59375 7.67776 8.59375 7.99998C8.59375 8.3222 8.48698 8.5972 8.27344 8.82498C8.0599 9.05276 7.80208 9.16665 7.5 9.16665ZM6.8125 13.6666H8.1875L8.40625 11.8C8.75 11.7111 9.07552 11.5722 9.38281 11.3833C9.6901 11.1944 9.96875 10.9666 10.2187 10.7L11.875 11.4666L12.5 10.2666L11.0312 9.11665C11.0729 8.92776 11.1068 8.74165 11.1328 8.55831C11.1589 8.37498 11.1719 8.18887 11.1719 7.99998C11.1719 7.81109 11.1615 7.62498 11.1406 7.44165C11.1198 7.25831 11.0833 7.0722 11.0312 6.88331L12.5 5.73331L11.875 4.53331L10.2187 5.29998C9.97917 5.01109 9.70833 4.76942 9.40625 4.57498C9.10417 4.38054 8.77083 4.25554 8.40625 4.19998L8.1875 2.33331H6.8125L6.59375 4.19998C6.23958 4.27776 5.90885 4.41109 5.60156 4.59998C5.29427 4.78887 5.02083 5.0222 4.78125 5.29998L3.125 4.53331L2.5 5.73331L3.96875 6.88331C3.92708 7.0722 3.89323 7.25831 3.86719 7.44165C3.84115 7.62498 3.82812 7.81109 3.82812 7.99998C3.82812 8.18887 3.84115 8.37498 3.86719 8.55831C3.89323 8.74165 3.92708 8.92776 3.96875 9.11665L2.5 10.2666L3.125 11.4666L4.78125 10.7C5.03125 10.9666 5.3099 11.1944 5.61719 11.3833C5.92448 11.5722 6.25 11.7111 6.59375 11.8L6.8125 13.6666Z" fill="#C2C3D5"/>
</svg>
