<svg width="14" height="13" viewBox="0 0 14 13" fill="none" xmlns="http://www.w3.org/2000/svg">
<path d="M12.4939 1.475H12.5843V12.5H12.4939V12.025V5.0375V4.5625V4.5375V4.0625V1.95V1.475ZM0.590359 12.025V12.5H0.5V1.475H0.590359V1.95V4.0625V4.5375V4.5625V5.0375V12.025ZM2.9528 1.45H2.77158V0.975V0.5H2.9528V0.975V1.45ZM10.3127 1.45H10.1315V0.975V0.5H10.3127V0.975V1.45ZM6.31525 7.3V7H6.76906V7.3H6.31525ZM3.40762 7.3V7H3.86144V7.3H3.40762ZM9.22287 7.3V7H9.67668V7.3H9.22287ZM6.31525 9.9V9.6H6.76906V9.9H6.31525ZM3.40762 9.9V9.6H3.86144V9.9H3.40762ZM9.22287 9.9V9.6H9.67668V9.9H9.22287Z" fill="#716F6F" stroke="#C3C5D4"/>
</svg>
